<svg version="1.2" xmlns="http://www.w3.org/2000/svg" viewBox="0 0 24 24" width="24" height="24">
	<style>
		.s0 { fill: #6b6b6b } 
	</style>
	<path class="s0" d="m23.39 16.21l-2.41-9.39c-1.12-4.02-4.81-6.82-8.98-6.82-4.4 0-8.14 3-9.1 7.29l-2.21 9.07c-0.2 0.89 0.02 1.8 0.59 2.52 0.57 0.71 1.43 1.12 2.34 1.12h3.48c0.47 2.28 2.49 4 4.9 4 2.41 0 4.43-1.72 4.9-4h3.6c0.94 0 1.82-0.43 2.39-1.18 0.57-0.76 0.75-1.71 0.5-2.61zm-11.39 6.79c-1.86 0-3.41-1.28-3.86-3h7.72c-0.45 1.72-2 3-3.86 3zm10.09-4.79c-0.38 0.5-0.96 0.79-1.59 0.79h-16.88c-0.61 0-1.18-0.27-1.56-0.75-0.38-0.47-0.52-1.09-0.39-1.66l2.21-9.07c0.85-3.84 4.19-6.52 8.12-6.52 3.72 0 7.02 2.5 8.01 6.07l2.42 9.39c0.16 0.61 0.04 1.25-0.34 1.75z"/>
</svg>