<svg version="1.2" xmlns="http://www.w3.org/2000/svg" viewBox="0 0 512 512" width="512" height="512">
	<style>
		.s0 { fill: #6b6b6b } 
	</style>
	<path class="s0" d="m416 42.67h-320c-52.91 0-96 43.09-96 96v234.66c0 52.91 43.09 96 96 96h320c52.91 0 96-43.09 96-96v-234.66c0-52.91-43.09-96-96-96zm-320 21.33h320c41.17 0 74.67 33.49 74.67 74.67v10.66h-469.34v-10.66c0-41.18 33.5-74.67 74.67-74.67zm320 384h-320c-41.17 0-74.67-33.49-74.67-74.67v-202.66h469.34v202.66c0 41.18-33.5 74.67-74.67 74.67zm-181.33-202.67c0 5.98-4.7 10.67-10.67 10.67h-53.33v117.33c0 5.98-4.7 10.67-10.67 10.67-5.97 0-10.67-4.69-10.67-10.67v-117.33h-53.33c-5.97 0-10.67-4.69-10.67-10.67 0-5.97 4.7-10.66 10.67-10.66h128c5.97 0 10.67 4.69 10.67 10.66zm192 0c0 5.98-4.7 10.67-10.67 10.67h-128c-5.97 0-10.67-4.69-10.67-10.67 0-5.97 4.7-10.66 10.67-10.66h128c5.97 0 10.67 4.69 10.67 10.66zm0 85.34c0 5.97-4.7 10.66-10.67 10.66h-128c-5.97 0-10.67-4.69-10.67-10.66 0-5.98 4.7-10.67 10.67-10.67h128c5.97 0 10.67 4.69 10.67 10.67z"/>
</svg>